<svg id="Layer_1" data-name="Layer 1" xmlns="http://www.w3.org/2000/svg" viewBox="0 0 67.8 14.59"><defs><style>.cls-1{fill:#fff;}</style></defs><title>logo_2</title><path class="cls-1" d="M-295.68-159.11c-3.32,0-5.41-1.79-5.41-6.76s2.36-6.93,5.58-6.93,5.45,1.82,5.45,6.78S-292.43-159.11-295.68-159.11Zm0.17-2.41c1.52,0,2.45-1.08,2.45-4.37s-1-4.5-2.62-4.5c-1.42,0-2.43,1-2.43,4.33S-297.12-161.52-295.51-161.52Z" transform="translate(328.64 173.7)"/><path class="cls-1" d="M-287.89-173.7h2.83v4.14H-285a3.91,3.91,0,0,1,2.09-.59c2.43,0,4.24,1.33,4.24,5.28,0,3.27-1.92,5.76-5.49,5.76a8.46,8.46,0,0,1-3.74-.68V-173.7Zm6.38,9.06c0-2.39-.84-3.15-2.07-3.15a1.93,1.93,0,0,0-1.44.57v5.68a3.25,3.25,0,0,0,1.08.15C-282.42-161.39-281.51-162.35-281.51-164.63Z" transform="translate(328.64 173.7)"/><path class="cls-1" d="M-277.06-166.9c0-1.75,1.5-3.32,4-3.32a4.89,4.89,0,0,1,3.88,1.5l-1.84,1.81a2.86,2.86,0,0,0-2.11-1,0.92,0.92,0,0,0-1.06.84c0,1.61,5.05,1,5.05,4.64,0,1.42-1.12,3.34-4.24,3.34a6,6,0,0,1-4.37-1.61l1.71-2a3.91,3.91,0,0,0,2.81,1.33,1,1,0,0,0,1.23-.91C-272-163.84-277.06-163.32-277.06-166.9Z" transform="translate(328.64 173.7)"/><path class="cls-1" d="M-267-162.73v-5.11h-1.37v-1.79l1.39-.57,1-2.53h1.82v2.7h2.68v2.18h-2.68v5.19a1,1,0,0,0,1.12,1.12,2.53,2.53,0,0,0,1.46-.48l0.74,2.15a5,5,0,0,1-3,.67C-265.66-159.2-267-160.13-267-162.73Z" transform="translate(328.64 173.7)"/><path class="cls-1" d="M-323.3-172.8a5.19,5.19,0,0,1,3.36,1l-0.7.91a4.33,4.33,0,0,0-2.79-.8c-2.47,0-4,1.79-4,5.74s1.44,5.79,4.14,5.79a3.73,3.73,0,0,0,2.66-.74l0.65,0.82a5.08,5.08,0,0,1-3.5,1c-3.55,0-5.13-2.62-5.13-6.76C-328.64-170.28-326.76-172.8-323.3-172.8Z" transform="translate(328.64 173.7)"/><path class="cls-1" d="M-318.07-164.39c0-3.17,1.16-5.34,4.18-5.34s4.07,2.11,4.07,5.22-1.16,5.36-4.18,5.36S-318.07-161.27-318.07-164.39Zm4.18,4.22c2.13,0,2.93-1.39,2.93-4.22s-0.91-4.31-3-4.31-2.93,1.37-2.93,4.2S-316-160.17-313.9-160.17Z" transform="translate(328.64 173.7)"/><rect class="cls-1" x="14.48" y="13.55" width="18.91" height="1"/></svg>