<?xml version="1.0" encoding="utf-8"?>
<!-- Generator: Adobe Illustrator 19.2.1, SVG Export Plug-In . SVG Version: 6.00 Build 0)  -->
<svg version="1.1" id="Layer_1" xmlns="http://www.w3.org/2000/svg" xmlns:xlink="http://www.w3.org/1999/xlink" x="0px" y="0px"
	 viewBox="0 0 98.5 100" style="enable-background:new 0 0 98.5 100;" xml:space="preserve">
<style type="text/css">
	.st0{fill:#0D9697;}
</style>
<title>icon</title>
<path class="st0" d="M63.3,62.6c2.7-0.3,4.7-2.6,4.7-5.4c-0.1-2.8-2.4-5-5.2-5h-0.2c-2.9,0.1-5.1,2.5-5,5.4c0.1,1.4,0.7,2.6,1.5,3.4
	c-3.2,6.2-8,10.8-15.3,14.6c-4.9,2.6-10.1,3.5-15.2,2.9C24.4,78,21.1,76.1,19,73c-3-4.6-3.3-9.5-0.7-14.4c1.8-3.5,4.6-6.1,6.3-7.5
	c-0.4-1.2-0.9-3.3-1.2-4.7c-13.5,9.8-12.1,23-8,29.2c3.1,4.7,9.3,7.5,16.2,7.5c1.9,0,3.7-0.2,5.6-0.7C49.1,80.2,58.2,73.1,63.3,62.6
	L63.3,62.6z M79.7,51.1c-7.1-8.3-17.5-12.9-29.4-12.9h-1.5c-0.8-1.7-2.6-2.8-4.6-2.8H44c-2.9,0.1-5.1,2.5-5,5.4c0.1,2.8,2.4,5,5.2,5
	h0.2c2-0.1,3.8-1.4,4.6-3.2h1.7c7.1,0,13.8,2,19.8,6.1c4.7,3.1,8,7.1,9.9,11.9c1.6,3.9,1.5,7.7-0.2,11c-2.6,4.9-7,7.6-12.8,7.6
	c-3.7,0-7.3-1.1-9.1-2c-1,0.9-2.9,2.4-4.2,3.4c4,1.9,8.1,2.9,12,2.9c8.9,0,15.6-4.9,18.1-9.9C86.8,68.3,86.7,59,79.7,51.1L79.7,51.1
	z M32.4,64.2c0.1,2.8,2.4,5,5.2,5h0.2c2.9-0.1,5.1-2.5,5-5.4c-0.1-2.8-2.4-5-5.2-5h-0.2c-0.2,0-0.5,0-0.7,0.1
	c-3.8-6.3-5.4-13.2-4.8-20.7c0.4-5.6,2.2-10.4,5.5-14.4c2.7-3.4,7.9-5.1,11.5-5.2c9.9-0.2,14.1,12.1,14.3,17
	c1.2,0.3,3.3,0.9,4.7,1.4c-1.1-15.1-10.4-22.9-19.4-22.9c-8.4,0-16.1,6.1-19.2,15C25,41,27.8,52.5,33,61.5
	C32.5,62.1,32.3,63.2,32.4,64.2L32.4,64.2z"/>
</svg>
