<?xml version="1.0" encoding="utf-8"?>
<!-- Generator: Adobe Illustrator 19.2.1, SVG Export Plug-In . SVG Version: 6.00 Build 0)  -->
<svg version="1.1" id="Layer_1" xmlns="http://www.w3.org/2000/svg" xmlns:xlink="http://www.w3.org/1999/xlink" x="0px" y="0px"
	 viewBox="0 0 100 100" style="enable-background:new 0 0 100 100;" xml:space="preserve">
<style type="text/css">
	.st0{fill:#0D9697;}
</style>
<title>icon</title>
<polygon class="st0" points="27.2,73.4 27.2,73.4 27.2,73.4 "/>
<path class="st0" d="M78.2,27.5C77.9,27.2,77.5,27,77,27H22.8c-0.9-0.1-1.7,0.6-1.7,1.5c0,0,0,0.1,0,0.1c0,0,0,0.1,0,0.1l5.1,54.2
	c0.1,0.7,0.6,1.3,1.2,1.5L51,91.1c0.2,0,0.3,0.1,0.5,0.1c0.2,0,0.4,0,0.5-0.1l20.3-6.8c0.6-0.2,1.1-0.8,1.2-1.4l5.1-54.2
	C78.6,28.3,78.5,27.8,78.2,27.5z M68.5,42.3l-3.4,30.5c-0.1,0.7-0.6,1.3-1.2,1.4L52,77.6c-0.3,0.1-0.6,0.1-0.9,0l-11.8-3.4
	c-0.6-0.1-1.1-0.6-1.2-1.2l-1.7-6.8c-0.2-0.9,0.3-1.8,1.2-2.1c0.9-0.2,1.8,0.3,2.1,1.2v0.1l1.5,5.8l10.5,3l10.3-3.1L63.4,57H36.3
	c-0.8,0.1-1.6-0.5-1.7-1.3s0.5-1.6,1.3-1.7c0.1,0,0.2,0,0.3,0h27.5l1.1-10H34.6c-1.1,0-2-0.9-2-2s0.9-2,2-2h32.2
	c1,0.1,1.7,0.9,1.7,1.9C68.5,41.9,68.5,42.2,68.5,42.3z"/>
<path class="st0" d="M32.9,20h6.8c0.8,0.1,1.6-0.5,1.7-1.3c0.1-0.8-0.5-1.6-1.3-1.7c-0.1,0-0.2,0-0.3,0H35v-4h4.7
	c0.8,0.1,1.6-0.5,1.7-1.3S40.9,10.1,40,10c-0.1,0-0.2,0-0.3,0h-6.8c-1-0.1-1.8,0.6-1.9,1.6v6.8C31.1,19.3,31.9,20,32.9,20z"/>
<path class="st0" d="M49.2,17h-2.7c-0.8-0.1-1.6,0.5-1.7,1.3c-0.1,0.8,0.5,1.6,1.3,1.7c0.1,0,0.2,0,0.3,0h6.8c0.4,0,0.9-0.2,1.2-0.5
	c0.7-0.7,0.7-1.8,0-2.5l-3.9-4h2.7c0.8,0.1,1.6-0.5,1.7-1.3s-0.5-1.6-1.3-1.7c-0.1,0-0.2,0-0.3,0h-6.8c-0.4,0-0.9,0.1-1.2,0.4
	c-0.7,0.7-0.7,1.8,0,2.5L49.2,17z"/>
<path class="st0" d="M62.7,17H60c-0.8-0.1-1.6,0.5-1.7,1.3c-0.1,0.8,0.5,1.6,1.3,1.7c0.1,0,0.2,0,0.3,0h6.8c0.4,0,0.9-0.2,1.2-0.5
	c0.7-0.7,0.7-1.8,0-2.5l-3.9-4h2.7c0.8,0.1,1.6-0.5,1.7-1.3S68,10.1,67.1,10c-0.1,0-0.2,0-0.3,0H60c-0.4,0-0.9,0.1-1.2,0.4
	c-0.7,0.7-0.7,1.8,0,2.5L62.7,17z"/>
</svg>
