<?xml version="1.0" encoding="utf-8"?>
<!-- Generator: Adobe Illustrator 19.2.1, SVG Export Plug-In . SVG Version: 6.00 Build 0)  -->
<svg version="1.1" id="Layer_1" xmlns="http://www.w3.org/2000/svg" xmlns:xlink="http://www.w3.org/1999/xlink" x="0px" y="0px"
	 viewBox="0 0 165.2 49" style="enable-background:new 0 0 165.2 49;" xml:space="preserve">
<style type="text/css">
	.st0{fill:#71C05D;}
	.st1{fill:#B6C1CC;}
	.st2{fill:none;}
	.st3{fill:#F26A68;}
	.st4{fill:#B6C0CB;}
</style>
<title>logo_obst</title>
<path class="st0" d="M79.5,11.7v-0.1c-1.2-4.1-6.8-4-6.8-4c0.4,2.4,2,4.4,4.2,5.5l0,0C77.7,12.5,78.6,12,79.5,11.7z"/>
<path class="st0" d="M85.4,11C88.8,6.6,86,0,86,0c-4.9,2.5-6.9,8.5-6.2,11.6c0.6-0.2,1.3-0.4,1.9-0.5C83,10.8,84.2,10.8,85.4,11z"/>
<path class="st1" d="M0,27.2c0-9.4,6.3-15.3,14.6-15.3c3.1,0.1,6.1,0.5,9.1,1.1l-0.4,8.2h-3.7l-1.2-5.7c-0.5-0.5-1.9-1-4.3-1
	c-4.4,0-7.5,4.1-7.5,12.2c0,7.3,2.5,13,7.7,13c2.6,0,3.7-0.6,4.4-1.3l1.8-4.1l3.4,0.3L23,40.8c-2.5,0.2-4.1,1.5-9,1.5
	C4.7,42.4,0,36.4,0,27.2z"/>
<path class="st1" d="M39.6,19.1c6.8,0,10.5,4.5,10.5,11.5c0,8-5.2,11.7-11,11.7c-6.8,0-10.5-4.5-10.5-11.5
	C28.6,23,33.8,19.1,39.6,19.1z M43.9,31c0-5.8-1.2-9.3-4.6-9.3c-3,0-4.6,2.7-4.6,8.7s1.4,9.3,4.7,9.3C42.3,39.8,43.9,37,43.9,31z"/>
<path class="st1" d="M63.1,7.7h3.3L58.5,49h-3.3L63.1,7.7z"/>
<path class="st2" d="M84.4,14.3c-4.3,0-7,4.2-7,12.8c0,8.5,2.5,12.8,6.9,12.8s6.9-4.6,6.9-13.3C91.2,18.1,88.7,14.3,84.4,14.3z"/>
<path class="st3" d="M95,21.4c0-0.3-0.2-0.5-0.4-0.5c0,0,0,0,0,0h-0.4c-1.4-0.1-2.6-1-3.2-2.3c-0.5-1.3-0.2-2.8,0.8-3.8l0.3-0.3
	c0.2-0.2,0.2-0.5,0-0.7c0,0,0,0-0.1-0.1l-0.3-0.2h-0.1c-2.1-1.1-4.5-1.6-6.9-1.5c-8.1,0-13.6,6-13.6,15.3c0,9.1,4.1,15.3,13.2,15.2
	c8-0.1,13.6-6.4,13.6-15.7c0-0.2,0-0.3,0-0.5c-0.6-0.1-1.2-0.3-1.6-0.7C94.7,24.3,94.8,22.9,95,21.4z M84.3,39.9
	c-4.4,0-6.9-4.3-6.9-12.8c0-8.7,2.7-12.8,7-12.8s6.8,3.9,6.8,12.4C91.2,35.4,88.6,39.9,84.3,39.9L84.3,39.9z"/>
<path class="st3" d="M100.5,10l7.3-0.9h0.1l1.1,0.8v11.8c1.6-1.6,3.8-2.5,6.1-2.6c4.7,0,8.7,3.1,8.7,11c0,6.9-4.5,12.3-11.8,12.3
	c-4.8,0-7.9-1.1-8.4-1.5V12.6l-3-0.5L100.5,10L100.5,10z M109,24.4V39c0.3,0.6,1.6,1,3.1,1c3.2,0,5.6-3,5.6-9.3
	c0-5.8-2.1-8.1-4.8-8.1C111.5,22.7,110.1,23.3,109,24.4L109,24.4z"/>
<path class="st3" d="M133.1,38.6c0.4,0.6,2.2,1.3,3.8,1.3c2.6,0,3.8-1.2,3.8-2.8c0-2.2-2.6-3-6.2-4.6s-5.5-3.5-5.5-7
	s3.4-6.2,8.6-6.2c2.5,0.1,4.9,0.5,7.2,1.2v5.2h-3.2l-0.9-3c-0.3-0.5-1.5-1-3-1c-2.2,0-3.6,1-3.6,2.6c0,2.4,2.5,3.2,5.1,4.3
	c3.4,1.4,6.9,3.1,6.9,7.2c0,3.8-3,6.6-9,6.6c-2.8-0.1-5.6-0.6-8.3-1.6v-5.3h3.3L133.1,38.6z"/>
<path class="st3" d="M152.8,37.4V22.8h-2.6v-2.1c0.8-0.3,1.8-0.6,2.4-0.9c0.6-0.5,1-1.1,1.2-1.8c0.5-1.4,1-2.8,1.3-4.2h3.2l0.2,5.9
	h6.1v3.1h-6.1V34c0,4.3,0.2,4.6,2,4.6c1.3,0,2.6-0.3,3.9-0.8l0.8,2.2c-2.2,1.4-4.8,2.2-7.5,2.2C154.4,42.3,152.8,40.9,152.8,37.4z"
	/>
<path class="st4" d="M87.7,26.2c0.4,0.2,0.7,0.6,0.9,1.1c0.1,0.3,0.2,0.7,0.1,1c0,0.3-0.1,0.6-0.2,0.8c-0.4,0.7-1.2,1.2-2,1.3
	c-0.2,0-0.4,0-0.5,0 M85.8,30.4c-0.5-0.3-0.5-2-0.4-2.5c0.1-0.8,0.6-1.4,1.4-1.7c0.3-0.1,0.6-0.1,0.9,0"/>
<path class="st4" d="M82.8,30.3c-0.2,0.1-0.4,0-0.5,0c-0.8-0.2-1.6-0.7-2-1.4c-0.1-0.3-0.2-0.5-0.2-0.8c0-0.3,0.1-0.6,0.2-0.9
	c0.2-0.5,0.5-0.9,0.9-1 M81.2,26c0.3-0.1,0.5-0.1,0.9,0c0.8,0.3,1.2,0.9,1.3,1.7c0,0.5,0,2.2-0.6,2.5"/>
</svg>
