<?xml version="1.0" encoding="utf-8"?>
<!-- Generator: Adobe Illustrator 19.2.1, SVG Export Plug-In . SVG Version: 6.00 Build 0)  -->
<svg version="1.1" id="Layer_1" xmlns="http://www.w3.org/2000/svg" xmlns:xlink="http://www.w3.org/1999/xlink" x="0px" y="0px"
	 viewBox="0 0 100 100" style="enable-background:new 0 0 100 100;" xml:space="preserve">
<style type="text/css">
	.st0{fill:#0D9697;}
</style>
<title>icon</title>
<path class="st0" d="M82,18.5c0-0.8-0.7-1.5-1.5-1.5H19.5c-0.8,0-1.5,0.7-1.5,1.5v61.1c0,0.8,0.7,1.5,1.5,1.5h61.1
	c0.8,0,1.5-0.7,1.5-1.5V18.5z M53,67.6c0,6.2-3.7,9-9,9c-3.9,0.2-7.5-2-9.1-5.6l0,0l4.1-2.4c0.4-0.2,0.9-0.1,1.2,0.3c0,0,0,0,0,0
	c0.7,1.3,1.3,2.3,3,2.3c2,0,2.8-0.7,2.8-3.8V47.9c0-0.5,0.4-0.9,0.9-0.9h5.3c0.5,0,0.9,0.4,0.9,0.9L53,67.6L53,67.6z M67.1,76.6
	c-5.6,0-9.2-2.7-10.9-6.1l0,0l4.2-2.5c0.4-0.2,0.9-0.1,1.1,0.2c1.2,1.9,3.3,3,5.5,3c2.5,0,4.1-1.2,4.1-3c0-2.1-1.6-2.8-4.4-4
	l-1.5-0.6c-4.3-1.8-7.2-4.2-7.2-9c0-4.5,3.4-7.9,8.8-7.9c3.5,0,6.1,1.1,8.1,4c0.3,0.4,0.3,0.9,0,1.2c-0.1,0.1-0.1,0.1-0.2,0.1
	l-3.2,2c-0.4,0.3-0.9,0.1-1.2-0.2c-0.7-1.2-2-1.9-3.4-1.9c-1.4-0.1-2.7,0.9-2.9,2.3c0,0.1,0,0.2,0,0.2c0,1.8,1.1,2.5,3.7,3.7
	l1.5,0.6c5.1,2.2,8,4.4,8,9.4C77,73.6,72.8,76.6,67.1,76.6z"/>
<polygon class="st0" points="34.9,71.1 34.9,71.1 34.9,71.1 "/>
</svg>
