<?xml version="1.0" encoding="utf-8"?>
<!-- Generator: Adobe Illustrator 19.2.1, SVG Export Plug-In . SVG Version: 6.00 Build 0)  -->
<svg version="1.1" id="Layer_1" xmlns="http://www.w3.org/2000/svg" xmlns:xlink="http://www.w3.org/1999/xlink" x="0px" y="0px"
	 viewBox="0 0 75.3 100" style="enable-background:new 0 0 75.3 100;" xml:space="preserve">
<style type="text/css">
	.st0{fill:#0D9697;}
</style>
<title>icon</title>
<g>
	<path class="st0" d="M59.2,15.4H15.3c-3.8,0-6.8,3-6.8,6.8V80c0,3.8,3,6.8,6.8,6.8h43.9c3.8,0,6.8-3,6.8-6.8V22.2
		C66,18.5,63,15.4,59.2,15.4z M21.9,76.9V60.8l8.1,8.1L21.9,76.9z M52.3,77h-7.7v0V48.6c0,0,1.8-6.8-22.7,2.8c0,0.1,0-26.2,0-26.2
		l8,0V42c0,0,22.5-8.8,22.5,6.7V77z M49.1,35.4h-8.5c3.1-3.7,5.8-10.2,5.8-10.2h8.8C55.2,25.2,53.7,29.4,49.1,35.4z"/>
</g>
</svg>
