<svg id="Layer_1" data-name="Layer 1" xmlns="http://www.w3.org/2000/svg" viewBox="0 0 100 100"><defs><style>.cls-1{fill:#5d5d5d;}</style></defs><title>icon</title><polygon class="cls-1" points="33.25 73.39 33.25 73.39 33.25 73.39 33.25 73.39"/><path class="cls-1" d="M27.38,9.43a1.69,1.69,0,0,0-1.69,1.69v6.77a1.69,1.69,0,0,0,3.38,0V11.12A1.69,1.69,0,0,0,27.38,9.43Z"/><path class="cls-1" d="M34.15,16.2H27.38a1.69,1.69,0,1,1,0-3.38h6.77A1.69,1.69,0,0,1,34.15,16.2Z"/><path class="cls-1" d="M34.15,19.59a1.69,1.69,0,0,1-1.69-1.69V11.12a1.69,1.69,0,1,1,3.38,0v6.77A1.69,1.69,0,0,1,34.15,19.59Z"/><path class="cls-1" d="M47.69,12.82H40.92a1.69,1.69,0,0,1,0-3.38h6.77A1.69,1.69,0,0,1,47.69,12.82Z"/><path class="cls-1" d="M44.31,19.59a1.69,1.69,0,0,1-1.69-1.69V11.12a1.69,1.69,0,1,1,3.38,0v6.77A1.69,1.69,0,0,1,44.31,19.59Z"/><path class="cls-1" d="M64.61,19.59a1.69,1.69,0,0,1-1.69-1.69V16.2l-2,2.71a1.75,1.75,0,0,1-2.71,0l-2-2.71v1.69a1.69,1.69,0,1,1-3.38,0V11.12a1.69,1.69,0,0,1,3-1l3.72,5,3.72-5a1.69,1.69,0,0,1,3,1v6.77A1.69,1.69,0,0,1,64.61,19.59Z"/><path class="cls-1" d="M76.46,19.59H71.38a1.69,1.69,0,0,1-1.69-1.69V11.12a1.69,1.69,0,1,1,3.38,0V16.2h3.38A1.69,1.69,0,1,1,76.46,19.59Z"/><path class="cls-1" d="M79.4,26.73A1.9,1.9,0,0,0,78.15,26H24a1.86,1.86,0,0,0-1.7,1.86c0,0.06,0,.2,0,0.26l5.08,54.2a1.72,1.72,0,0,0,1.22,1.49L52.3,90.59a1.7,1.7,0,0,0,.47.07,1.74,1.74,0,0,0,.53-0.08l20.31-6.77a1.69,1.69,0,0,0,1.15-1.45l5.08-54.24A1.9,1.9,0,0,0,79.4,26.73ZM68,43H37.76L39,53H64.61a1.89,1.89,0,0,1,1.7,1.9c0,0.06,0,.23,0,0.29l-1.69,17a1.73,1.73,0,0,1-1.15,1.47L53.31,77a1.75,1.75,0,0,1-.54.09,1.69,1.69,0,0,1-.46-0.06L40.46,73.67a1.69,1.69,0,0,1-1.18-1.21l-1.69-6.77a1.69,1.69,0,0,1,3.26-.89l0,0.08,1.46,5.82,10.4,3,8.62-2.78L62.74,57H37.54a1.78,1.78,0,0,1-1.69-1.57L34.15,41.84A1.66,1.66,0,0,1,35.62,40a1.83,1.83,0,0,1,.23,0H68A1.51,1.51,0,1,1,68,43Z"/></svg>