<?xml version="1.0" encoding="utf-8"?>
<!-- Generator: Adobe Illustrator 19.2.1, SVG Export Plug-In . SVG Version: 6.00 Build 0)  -->
<svg version="1.1" id="Layer_1" xmlns="http://www.w3.org/2000/svg" xmlns:xlink="http://www.w3.org/1999/xlink" x="0px" y="0px"
	 viewBox="0 0 214 100" style="enable-background:new 0 0 214 100;" xml:space="preserve">
<style type="text/css">
	.st0{fill:#0D9697;}
</style>
<title>icon</title>
<g>
	<path class="st0" d="M93.6,70.1c0,0,7.7-0.7,7.7-10.5S92,48.8,92,48.8H75.3V80h8.4v-7.5L91,80h12.4L93.6,70.1z M90.4,63.8h-6.7
		v-7.1h6.7c0,0,1.9,0.7,1.9,3.5S90.4,63.8,90.4,63.8z M122,49h-8.5c-6.1,0-8.1,5.5-8.1,8.1V80h8.5v-5.5h8V80h8.3V57.2
		C130.1,50.5,124.1,49,122,49z M121.8,65.7h-8v-7.6c0,0,0-1.7,2.7-1.7h2.9c2.4,0,2.4,1.7,2.4,1.7V65.7L121.8,65.7z M134,49h8.9v31
		H134V49z M155.3,72V49h-8.8v23v8h8.8h11.9v-8H155.3z M170.2,72.1V80h14.3c2.9,0,8-2.1,8.1-8.1v-3.1c0-5.1-4.2-8.1-8.1-8.1h-7.1V57
		h14.1v-8h-13.6c-3.5,0-8.2,2.9-8.2,8.3V60c0,5.4,4.6,8.1,8.2,8.1c9.8,0-2.4,0,6.7,0V72L170.2,72.1z"/>
	<path class="st0" d="M22.4,79.9h34.5c0,0-6.6-30.1,15.3-42.3c4.8-2.3,19.9-11,44.8,7.4c0.8-0.7,1.5-1.2,1.5-1.2s-22.7-22.7-48-20.2
		c-12.7,1.1-28.4,12.7-37.6,28S22.4,79.9,22.4,79.9z M94.4,26.1l0.2-2.9c-0.4-0.2-1.5-0.7-4.2-1.5l-0.2,2.9
		C91.6,25,93,25.5,94.4,26.1z M90.2,35.4L90,38.1c1.4,0,2.9,0.2,4.3,0.5l0.2-2.7C93,35.6,91.6,35.5,90.2,35.4z M74,21.7h0.4L73.5,19
		c-1.4,0-2.8,0.1-4.2,0.3l0.8,2.6C71.5,21.8,72.8,21.7,74,21.7z M76.1,37.8l1,3c1.3-0.6,2.5-1.1,3.8-1.5l-1-2.9
		C78.5,36.9,77.2,37.3,76.1,37.8z M56.3,26.3l-2-3c-1.1,0.6-2.2,1.2-3.4,1.9l2,3.1C54,27.6,55.1,26.9,56.3,26.3z M65.2,46l2.1,3.1
		C68,48,68.9,47,69.9,46l-2-3C66.9,44,66,45,65.2,46z M58.9,60.1l3.5,2.8c0.2-1.7,0.5-3.4,0.9-5.1l-3.1-2.5
		C59.6,56.9,59.2,58.5,58.9,60.1z M39.7,39.3l-3.1-2.7c-1.1,1.1-2.2,2.2-3.2,3.3l3.4,2.9C37.7,41.6,38.7,40.4,39.7,39.3z M26.5,58.9
		l-5-1.8c-0.8,1.9-1.7,4.1-2.2,5.2l5,1.8C24.9,62.6,25.8,60.5,26.5,58.9z M58.2,71.2c0.1,2.3,0.3,4.2,0.5,5.5l5.2,1.9
		c-0.4-1.7-0.8-3.6-1-5.7L58.2,71.2z"/>
</g>
</svg>
