<svg id="Layer_1" data-name="Layer 1" xmlns="http://www.w3.org/2000/svg" viewBox="0 0 100 100"><defs><style>.cls-1{fill:#5d5d5d;}</style></defs><title>icon</title><path class="cls-1" d="M82,18.46A1.46,1.46,0,0,0,80.54,17H19.46A1.46,1.46,0,0,0,18,18.46V79.54A1.46,1.46,0,0,0,19.46,81H80.54A1.46,1.46,0,0,0,82,79.54V18.46ZM53,67.55c0,6.22-3.71,9-9,9A9.5,9.5,0,0,1,34.87,71h0L39,68.55a0.87,0.87,0,0,1,1.21.34c0.7,1.31,1.28,2.32,3,2.32,2,0,2.79-.74,2.79-3.75V47.87A0.87,0.87,0,0,1,46.87,47h5.27a0.87,0.87,0,0,1,.87.87V67.55ZM67.08,76.6c-5.58,0-9.18-2.66-10.94-6.14h0L60.32,68a0.86,0.86,0,0,1,1.14.25,6.28,6.28,0,0,0,5.49,3c2.49,0,4.08-1.24,4.08-3,0-2.06-1.63-2.79-4.38-4l-1.5-.64c-4.33-1.84-7.21-4.16-7.21-9.05,0-4.51,3.43-7.94,8.8-7.94,3.52,0,6.13,1.13,8.06,4A0.88,0.88,0,0,1,74.56,52L71.33,54a0.86,0.86,0,0,1-1.18-.24,3.8,3.8,0,0,0-3.42-1.86,2.61,2.61,0,0,0-2.88,2.57c0,1.8,1.12,2.53,3.69,3.65l1.5,0.64c5.11,2.19,8,4.42,8,9.44C77,73.64,72.79,76.6,67.08,76.6Z"/><polygon class="cls-1" points="34.89 71.11 34.89 71.11 34.89 71.11 34.89 71.11"/></svg>