<svg id="Layer_1" data-name="Layer 1" xmlns="http://www.w3.org/2000/svg" viewBox="0 0 100 100"><defs><style>.cls-1{fill:#5d5d5d;}</style></defs><title>icon</title><polygon class="cls-1" points="27.25 73.39 27.25 73.39 27.25 73.39 27.25 73.39"/><path class="cls-1" d="M78.21,27.47A1.62,1.62,0,0,0,77,27H22.75A1.63,1.63,0,0,0,21,28.6a0.93,0.93,0,0,0,0,.12l5.08,54.19a1.68,1.68,0,0,0,1.22,1.46l23.72,6.77a1.69,1.69,0,0,0,.47.06,1.75,1.75,0,0,0,.54-0.09l20.33-6.78a1.69,1.69,0,0,0,1.15-1.45l5.08-54.17A1.6,1.6,0,0,0,78.21,27.47Zm-9.72,14.8L65.1,72.76a1.69,1.69,0,0,1-1.22,1.44L52,77.59a1.7,1.7,0,0,1-.94,0L39.22,74.2A1.69,1.69,0,0,1,38,73L36.35,66.2a1.69,1.69,0,0,1,3.27-.9l0,0.08,1.46,5.83,10.45,3,10.3-3.11L63.39,57H36.3a1.51,1.51,0,1,1,0-3H63.77L64.9,44H34.61a2,2,0,0,1,0-4H66.8a1.87,1.87,0,0,1,1.7,1.88C68.5,41.94,68.5,42.2,68.49,42.27Z"/><path class="cls-1" d="M32.91,20h6.78a1.51,1.51,0,1,0,0-3H35V13h4.69a1.51,1.51,0,1,0,0-3H32.91A1.8,1.8,0,0,0,31,11.58v6.78A1.85,1.85,0,0,0,32.91,20Z"/><path class="cls-1" d="M49.15,17H46.46a1.51,1.51,0,1,0,0,3h6.78a1.67,1.67,0,0,0,1.2-.47,1.85,1.85,0,0,0,0-2.52l-3.88-4h2.69a1.51,1.51,0,1,0,0-3H46.46a1.65,1.65,0,0,0-1.2.44,1.87,1.87,0,0,0,0,2.54Z"/><path class="cls-1" d="M62.71,17H60a1.51,1.51,0,1,0,0,3H66.8a1.67,1.67,0,0,0,1.2-.47A1.85,1.85,0,0,0,68,17l-3.88-4H66.8a1.51,1.51,0,1,0,0-3H60a1.65,1.65,0,0,0-1.2.44,1.87,1.87,0,0,0,0,2.54Z"/></svg>