<?xml version="1.0" encoding="utf-8"?>
<!-- Generator: Adobe Illustrator 19.2.1, SVG Export Plug-In . SVG Version: 6.00 Build 0)  -->
<svg version="1.1" id="Layer_1" xmlns="http://www.w3.org/2000/svg" xmlns:xlink="http://www.w3.org/1999/xlink" x="0px" y="0px"
	 viewBox="0 0 100 100" style="enable-background:new 0 0 100 100;" xml:space="preserve">
<style type="text/css">
	.st0{fill:#0D9697;}
</style>
<title>icon</title>
<polygon class="st0" points="33.2,73.4 33.2,73.4 33.2,73.4 "/>
<path class="st0" d="M27.4,9.4c-0.9,0-1.7,0.8-1.7,1.7v0v6.8c0,0.9,0.8,1.7,1.7,1.7s1.7-0.8,1.7-1.7v-6.8
	C29.1,10.2,28.3,9.4,27.4,9.4L27.4,9.4z"/>
<path class="st0" d="M34.2,16.2h-6.8c-0.9,0-1.7-0.8-1.7-1.7c0-0.9,0.8-1.7,1.7-1.7l0,0h6.8c0.9,0,1.7,0.8,1.7,1.7
	C35.8,15.4,35.1,16.2,34.2,16.2z"/>
<path class="st0" d="M34.2,19.6c-0.9,0-1.7-0.8-1.7-1.7v-6.8c0-0.9,0.8-1.7,1.7-1.7c0.9,0,1.7,0.8,1.7,1.7v6.8
	C35.8,18.8,35.1,19.6,34.2,19.6C34.2,19.6,34.2,19.6,34.2,19.6z"/>
<path class="st0" d="M47.7,12.8h-6.8c-0.9,0-1.7-0.8-1.7-1.7c0-0.9,0.8-1.7,1.7-1.7h6.8c0.9,0,1.7,0.8,1.7,1.7
	C49.4,12.1,48.6,12.8,47.7,12.8z"/>
<path class="st0" d="M44.3,19.6c-0.9,0-1.7-0.8-1.7-1.7v-6.8c0-0.9,0.8-1.7,1.7-1.7c0.9,0,1.7,0.8,1.7,1.7v6.8
	C46,18.8,45.3,19.6,44.3,19.6C44.3,19.6,44.3,19.6,44.3,19.6z"/>
<path class="st0" d="M64.6,19.6c-0.9,0-1.7-0.8-1.7-1.7v-1.7l-2,2.7c-0.6,0.7-1.7,0.9-2.5,0.2c-0.1-0.1-0.2-0.2-0.2-0.2l-2-2.7v1.7
	c0,0.9-0.8,1.7-1.7,1.7c-0.9,0-1.7-0.8-1.7-1.7v-6.8c0-0.9,0.8-1.7,1.8-1.6c0.5,0,0.9,0.2,1.2,0.6l3.7,5l3.7-5
	c0.6-0.7,1.7-0.8,2.4-0.2c0.4,0.3,0.6,0.8,0.6,1.2v6.8C66.3,18.8,65.5,19.6,64.6,19.6z"/>
<path class="st0" d="M76.5,19.6h-5.1c-0.9,0-1.7-0.8-1.7-1.7c0,0,0,0,0,0v-6.8c0-0.9,0.8-1.7,1.7-1.7c0.9,0,1.7,0.8,1.7,1.7
	c0,0,0,0,0,0v5.1h3.4c0.9,0,1.7,0.8,1.7,1.7S77.4,19.6,76.5,19.6z"/>
<path class="st0" d="M79.4,26.7c-0.3-0.4-0.8-0.7-1.2-0.7H24c-1,0.1-1.7,0.9-1.7,1.9c0,0.1,0,0.2,0,0.3l5.1,54.2
	c0.1,0.7,0.5,1.3,1.2,1.5l23.7,6.8c0.2,0,0.3,0.1,0.5,0.1c0.2,0,0.4,0,0.5-0.1l20.3-6.8c0.6-0.2,1.1-0.8,1.2-1.4l5.1-54.2
	C79.9,27.6,79.7,27.1,79.4,26.7z M68,43H37.8L39,53h25.6c1,0.1,1.7,0.9,1.7,1.9c0,0.1,0,0.2,0,0.3l-1.7,17c-0.1,0.7-0.5,1.2-1.2,1.5
	L53.3,77c-0.2,0.1-0.4,0.1-0.5,0.1c-0.2,0-0.3,0-0.5-0.1l-11.9-3.4c-0.6-0.2-1-0.6-1.2-1.2l-1.7-6.8c-0.2-0.9,0.3-1.8,1.2-2.1
	c0.9-0.2,1.8,0.3,2,1.2v0.1l1.5,5.8l10.4,3l8.6-2.8L62.7,57H37.5c-0.9,0-1.6-0.7-1.7-1.6l-1.7-13.6c-0.1-0.9,0.5-1.7,1.5-1.8
	c0,0,0,0,0,0c0.1,0,0.2,0,0.2,0H68c0.8-0.1,1.6,0.5,1.7,1.3s-0.5,1.6-1.3,1.7C68.2,43,68.1,43,68,43z"/>
</svg>
