<?xml version="1.0" encoding="utf-8"?>
<!-- Generator: Adobe Illustrator 19.2.1, SVG Export Plug-In . SVG Version: 6.00 Build 0)  -->
<svg version="1.1" id="Layer_1" xmlns="http://www.w3.org/2000/svg" xmlns:xlink="http://www.w3.org/1999/xlink" x="0px" y="0px"
	 viewBox="0 0 98.5 100" style="enable-background:new 0 0 98.5 100;" xml:space="preserve">
<style type="text/css">
	.st0{fill:#0D9697;}
</style>
<title>icon</title>
<g>
	<path class="st0" d="M59,54.1c-1.3-0.9-2.9-1.4-4.9-1.4H44v11.6h9.9c0.9,0,1.8-0.1,2.6-0.3s1.6-0.5,2.2-0.9c0.6-0.4,1.1-1,1.5-1.7
		c0.4-0.7,0.6-1.6,0.6-2.7C60.8,56.6,60.2,55,59,54.1z"/>
	<path class="st0" d="M75.8,15.5H24c-5,0-9,4-9,9v51.8c0,5,4,9,9,9h51.8c5,0,9-4,9-9V24.5C84.8,19.5,80.8,15.5,75.8,15.5z
		 M68.8,64.8c-0.8,1.5-1.9,2.8-3.3,3.8s-3,1.7-4.8,2.2s-3.6,0.7-5.5,0.7H34.7V29.4v-0.1v0.1h19.7c2,0,3.8,0.1,5.5,0.5
		c1.7,0.3,3.1,0.9,4.3,1.7c1.2,0.8,2.1,1.9,2.8,3.2c0.7,1.4,1,3,1,5c0,2.1-0.4,3.9-1.4,5.3c-1,1.4-2.4,2.6-4.3,3.5
		c2.6,0.7,4.5,2,5.8,3.9c1.3,1.9,1.9,4.2,1.9,6.8C70,61.4,69.6,63.2,68.8,64.8z"/>
	<path class="st0" d="M57.4,45.1c1.1-0.7,1.6-2,1.6-3.8c0-1-0.1-1.8-0.5-2.4c-0.3-0.7-0.8-1.1-1.4-1.5c-0.6-0.3-1.2-0.6-2-0.7
		c-0.8-0.1-1.6-0.2-2.4-0.2H44v9.8h9.3C55,46.3,56.3,45.9,57.4,45.1z"/>
</g>
</svg>
