<?xml version="1.0" encoding="utf-8"?>
<!-- Generator: Adobe Illustrator 19.2.1, SVG Export Plug-In . SVG Version: 6.00 Build 0)  -->
<svg version="1.1" id="Layer_1" xmlns="http://www.w3.org/2000/svg" xmlns:xlink="http://www.w3.org/1999/xlink" x="0px" y="0px"
	 viewBox="0 0 231.8 227" style="enable-background:new 0 0 231.8 227;" xml:space="preserve">
<style type="text/css">
	.st0{fill:#0D9697;}
</style>
<title>logo_3</title>
<path class="st0" d="M179.7,17.8c-17.6-15-43.8-12.3-60,4.4l-6.3,6.5l-6.3-6.5C90.9,5.5,64.7,2.8,47,17.8
	C26.8,35.1,25.8,66,43.8,84.7l62.2,64.2c3.9,4,10.2,4.2,14.3,0.3c0.1-0.1,0.2-0.2,0.3-0.3l62.2-64.2C200.9,66,199.8,35.1,179.7,17.8
	L179.7,17.8L179.7,17.8z"/>
<path d="M18.2,88.9c0-6.5-16.5-5.3-16.5-16.5c0-5.7,4.9-10.1,11.9-10.1c5.1,0,8.6,2.2,10.1,3.7l-3.9,4.7c-1.7-1.9-4.2-3-6.7-3
	c-3.2,0-4.9,1.8-4.9,4.1c0,6.7,16.4,5.4,16.4,16.6c0,5.3-4.3,10.2-12.8,10.2c-6.3,0-10.3-2.6-11.8-4.1l3.6-5.2
	c2.4,2.4,5.6,3.8,8.9,3.9C16.3,93.3,18.2,91.3,18.2,88.9z"/>
<path d="M49.9,78.6v11.8c0,1.9,0.7,3,2.2,3h0.8v4.3c-0.9,0.5-1.9,0.7-2.9,0.7c-2.2,0.1-4.2-1.1-5.1-3.2h-0.2
	c-1.2,1.5-3.3,3.4-7.6,3.4c-5.4,0-8.2-3.7-8.2-7.7c0-6.3,6-9.4,15.2-9v-2.5c0-3.7-1.9-4.7-4.7-4.7c-2.3-0.1-4.4,1.2-5.4,3.2
	l-4.4-3.3c2.2-3.3,5.9-5.1,9.8-5C46.1,69.7,49.9,72.2,49.9,78.6z M44.1,86.4c-5.6-0.3-9.1,1-9.1,4.1c0,1.9,1.3,3.4,3.7,3.4
	c2.1,0,4.1-1,5.4-2.7L44.1,86.4L44.1,86.4z"/>
<path d="M56.9,102.9c0.9,0.4,1.9,0.6,2.9,0.6c3,0,4.6-1.7,5.3-5L54.7,70.2h6.9l3.7,11.1c1.1,3.3,2,6.6,2.7,9.9h0.2
	c0.6-3.4,1.4-6.7,2.4-9.9l3.3-11.1h6.4l-9.6,29.7c-1.7,5-4.4,9.1-10.7,9.1c-1.4,0-2.8-0.3-4.1-0.8L56.9,102.9z"/>
<path d="M126.4,62.9v35.4h-6.3V83.1h-14.5v15.1h-6.3V62.9h6.3v15h14.5v-15H126.4z"/>
<path d="M155.8,95.8c-2.1,1.6-4.9,2.9-9.7,2.9c-8.6,0-13-4.7-13-14.6c0-9.5,5.3-14.5,12.7-14.5c7,0,10.9,4.4,10.9,11.2
	c0,1.7-0.1,3.3-0.3,4.9h-17.2c0.2,5.3,2.5,7.9,7.6,7.9c2.3,0,4.6-0.8,6.3-2.4L155.8,95.8z M139.2,81.5h11.5v-1.3
	c0-3.7-1.7-5.7-5.2-5.7S139.4,76.9,139.2,81.5L139.2,81.5z"/>
<path d="M169.1,60v30.2c0,2.2,0.9,3,2.6,3c0.5,0,1-0.1,1.5-0.2v5c-1.1,0.5-2.4,0.7-3.6,0.7c-4.3,0-6.7-2.5-6.7-6.8V60H169.1
	L169.1,60z"/>
<path d="M184.4,60v30.2c0,2.2,0.9,3,2.6,3c0.5,0,1-0.1,1.5-0.2v5c-1.1,0.5-2.4,0.7-3.6,0.7c-4.3,0-6.7-2.5-6.7-6.8V60H184.4
	L184.4,60z"/>
<path d="M191.9,84.3c0-8.7,3.5-14.7,12.5-14.7c9.3,0,12.3,5.8,12.3,14.4s-3.5,14.7-12.5,14.7C195,98.7,191.9,92.9,191.9,84.3z
	 M204.4,93.7c4.4,0,5.9-3.1,5.9-9.4c0-6.5-1.8-9.7-6.2-9.7c-4.1,0-5.8,3-5.8,9.4S200.1,93.7,204.4,93.7L204.4,93.7z"/>
<path d="M227.7,90.4c2.2-0.1,4,1.7,4.1,3.9c0,0.1,0,0.2,0,0.2c-0.1,2.2-1.9,3.9-4.1,3.9c-2.2,0-3.9-1.7-3.9-3.9
	C223.7,92.3,225.5,90.5,227.7,90.4C227.7,90.4,227.7,90.4,227.7,90.4z M225.3,84.7L224,61.6h7.6l-1.3,23.1H225.3z"/>
<path class="st0" d="M113,165.8h0.8c2.3,0,4.1,1.9,4,4.1l-0.8,41.9c0,2.2-1.8,4-4,4h0c-2.2,0-4-1.8-4-4v-41.9
	C109,167.6,110.8,165.8,113,165.8z"/>
<g>
	<path class="st0" d="M110.2,222.8l-11.2-11.2c-1.6-1.6-1.6-4.1,0-5.7l0,0c1.6-1.6,4.1-1.6,5.7,0l5.6,5.6c1.6,1.6,4.1,1.6,5.7,0
		l5.6-5.6c1.6-1.6,4.1-1.6,5.7,0h0c1.6,1.6,1.6,4.1,0,5.7l-11.2,11.2C114.3,224.4,111.7,224.4,110.2,222.8z"/>
</g>
</svg>
