<?xml version="1.0" encoding="utf-8"?>
<!-- Generator: Adobe Illustrator 19.2.1, SVG Export Plug-In . SVG Version: 6.00 Build 0)  -->
<svg version="1.1" id="Layer_1" xmlns="http://www.w3.org/2000/svg" xmlns:xlink="http://www.w3.org/1999/xlink" x="0px" y="0px"
	 viewBox="0 0 67.8 14.6" style="enable-background:new 0 0 67.8 14.6;" xml:space="preserve">
<style type="text/css">
	.st0{fill:#FFFFFF;}
</style>
<title>logo_2</title>
<path class="st0" d="M33,14.5c-3.3,0-5.4-1.8-5.4-6.8s2.4-6.9,5.6-6.9s5.5,1.8,5.5,6.8S36.2,14.5,33,14.5z M33.1,12.1
	c1.5,0,2.5-1.1,2.5-4.4s-1-4.5-2.6-4.5c-1.4,0-2.4,1-2.4,4.3S31.5,12.1,33.1,12.1L33.1,12.1z"/>
<path class="st0" d="M40.8,0h2.8v4.1h0.1c0.6-0.4,1.4-0.6,2.1-0.6c2.4,0,4.2,1.3,4.2,5.3c0,3.3-1.9,5.8-5.5,5.8
	c-1.3,0.1-2.6-0.2-3.7-0.7L40.8,0L40.8,0z M47.1,9c0-2.4-0.8-3.1-2.1-3.1c-0.5,0-1.1,0.2-1.4,0.6v5.7c0.3,0.1,0.7,0.2,1.1,0.1
	C46.2,12.3,47.1,11.3,47.1,9L47.1,9z"/>
<path class="st0" d="M51.6,6.8c0-1.8,1.5-3.3,4-3.3c1.5-0.1,2.9,0.4,3.9,1.5l-1.8,1.8c-0.5-0.6-1.3-1-2.1-1c-0.5-0.1-1,0.3-1.1,0.8
	c0,0,0,0,0,0.1c0,1.6,5,1,5,4.6c0,1.4-1.1,3.3-4.2,3.3c-1.6,0.1-3.2-0.5-4.4-1.6l1.7-2c0.7,0.8,1.7,1.3,2.8,1.3
	c0.5,0.1,1.1-0.2,1.2-0.7c0-0.1,0-0.1,0-0.2C56.6,9.8,51.6,10.3,51.6,6.8z"/>
<path class="st0" d="M61.6,10.9V5.8h-1.4V4l1.4-0.6l1-2.5h1.8v2.7h2.7v2.2h-2.7V11c-0.1,0.5,0.3,1,0.9,1.1c0.1,0,0.2,0,0.3,0
	c0.5,0,1-0.2,1.5-0.5l0.7,2.1c-0.9,0.5-2,0.8-3,0.7C63,14.5,61.6,13.5,61.6,10.9z"/>
<path class="st0" d="M5.3,0.9c1.2-0.1,2.4,0.3,3.4,1L8,2.8C7.2,2.2,6.2,1.9,5.2,2c-2.5,0-4,1.8-4,5.7s1.4,5.8,4.1,5.8
	c0.9,0.1,1.9-0.2,2.7-0.7l0.6,0.8c-1,0.8-2.2,1.1-3.5,1C1.6,14.6,0,12,0,7.8C0,3.4,1.9,0.9,5.3,0.9z"/>
<path class="st0" d="M10.6,9.3c0-3.2,1.2-5.3,4.2-5.3s4.1,2.1,4.1,5.2s-1.2,5.4-4.2,5.4S10.6,12.4,10.6,9.3z M14.8,13.5
	c2.1,0,2.9-1.4,2.9-4.2S16.8,5,14.7,5s-2.9,1.4-2.9,4.2S12.6,13.5,14.8,13.5L14.8,13.5z"/>
<rect x="18.3" y="8.4" class="st0" width="10.3" height="1.3"/>
</svg>
