<?xml version="1.0" encoding="utf-8"?>
<!-- Generator: Adobe Illustrator 19.2.1, SVG Export Plug-In . SVG Version: 6.00 Build 0)  -->
<svg version="1.1" id="Layer_1" xmlns="http://www.w3.org/2000/svg" xmlns:xlink="http://www.w3.org/1999/xlink" x="0px" y="0px"
	 viewBox="0 0 229.6 19" style="enable-background:new 0 0 229.6 19;" xml:space="preserve">
<style type="text/css">
	.st0{fill:#2D2D2D;}
	.st1{fill:#0D9697;}
</style>
<rect x="18" y="11.9" class="st0" width="10.3" height="1.3"/>
<title>logo_obst</title>
<path class="st0" d="M33,17.9c-3.3,0-5.4-1.8-5.4-6.8s2.4-6.9,5.6-6.9S38.6,6,38.6,11S36.2,17.9,33,17.9z M33.1,15.5
	c1.5,0,2.5-1.1,2.5-4.4s-1-4.5-2.6-4.5c-1.4,0-2.4,1-2.4,4.3S31.5,15.5,33.1,15.5L33.1,15.5z"/>
<path class="st0" d="M40.8,3.3h2.8v4.1h0.1C44.3,7,45,6.8,45.7,6.9c2.4,0,4.2,1.3,4.2,5.3c0,3.3-1.9,5.8-5.5,5.8
	c-1.3,0.1-2.6-0.2-3.7-0.7L40.8,3.3L40.8,3.3z M47.1,12.4c0-2.4-0.8-3.1-2.1-3.1c-0.5,0-1.1,0.2-1.4,0.6v5.7
	c0.3,0.1,0.7,0.2,1.1,0.1C46.2,15.6,47.1,14.6,47.1,12.4L47.1,12.4z"/>
<path class="st0" d="M51.6,10.1c0-1.8,1.5-3.3,4-3.3c1.5-0.1,2.9,0.4,3.9,1.5l-1.8,1.8c-0.5-0.6-1.3-1-2.1-1c-0.5-0.1-1,0.3-1.1,0.8
	c0,0,0,0,0,0.1c0,1.6,5,1,5,4.6c0,1.4-1.1,3.3-4.2,3.3c-1.6,0.1-3.2-0.5-4.4-1.6l1.7-2c0.7,0.8,1.7,1.3,2.8,1.3
	c0.5,0.1,1.1-0.2,1.2-0.7c0-0.1,0-0.1,0-0.2C56.6,13.2,51.6,13.7,51.6,10.1z"/>
<path class="st0" d="M61.6,14.3V9.2h-1.4V7.4l1.4-0.6l1-2.5h1.8V7h2.7v2.2h-2.7v5.2c-0.1,0.5,0.3,1,0.9,1.1c0.1,0,0.2,0,0.3,0
	c0.5,0,1-0.2,1.5-0.5l0.7,2.1c-0.9,0.5-2,0.8-3,0.7C63,17.8,61.6,16.9,61.6,14.3z"/>
<path class="st0" d="M5.3,4.2c1.2-0.1,2.4,0.3,3.4,1L8,6.1C7.2,5.5,6.2,5.2,5.2,5.3c-2.5,0-4,1.8-4,5.7s1.4,5.8,4.1,5.8
	c0.9,0.1,1.9-0.2,2.7-0.7l0.6,0.8c-1,0.8-2.2,1.1-3.5,1c-3.5,0-5.1-2.6-5.1-6.8C0,6.7,1.9,4.2,5.3,4.2z"/>
<path class="st0" d="M10.6,12.6c0-3.2,1.2-5.3,4.2-5.3s4.1,2.1,4.1,5.2s-1.2,5.4-4.2,5.4S10.6,15.7,10.6,12.6z M14.8,16.8
	c2.1,0,2.9-1.4,2.9-4.2s-0.9-4.3-3-4.3s-2.9,1.4-2.9,4.2S12.6,16.8,14.8,16.8L14.8,16.8z"/>
<rect x="77" class="st0" width="1" height="19"/>
<g>
	<path class="st1" d="M89.1,16.3V5h5.7v0.9h-4.7v4.5h4.2v0.9h-4.2v5L89.1,16.3L89.1,16.3z"/>
	<path class="st1" d="M100.6,8.6c-0.3-0.1-0.7-0.1-1-0.1c-0.9-0.1-1.8,0.4-2.1,1.2v6.6h-0.9V7.6h0.7l0.2,0.9h0.1
		c0.5-0.7,1.3-1,2.2-1c0.3,0,0.6,0,0.9,0.1L100.6,8.6L100.6,8.6z"/>
	<path class="st1" d="M108,15.6c-0.8,0.5-1.7,0.7-2.6,0.7c-2.4,0-3.7-1.2-3.7-4.5s1.8-4.4,3.6-4.4c2,0,3.1,1.3,3.1,3.4
		c0,0.4,0,1-0.1,1.5h-5.6c0.1,2.4,1.1,3.2,2.9,3.2c0.7,0,1.4-0.2,2-0.6L108,15.6z M102.7,11.4h4.7c0-0.2,0-0.4,0-0.6
		c0-1.6-0.7-2.5-2.2-2.5C104,8.4,102.8,9.1,102.7,11.4L102.7,11.4z"/>
	<path class="st1" d="M116.6,15.6c-0.8,0.5-1.7,0.7-2.6,0.7c-2.4,0-3.7-1.2-3.7-4.5s1.8-4.4,3.6-4.4c2,0,3.1,1.3,3.1,3.4
		c0,0.4,0,1-0.1,1.5h-5.6c0.1,2.4,1.1,3.2,2.9,3.2c0.7,0,1.4-0.2,2-0.6L116.6,15.6z M111.3,11.4h4.7c0-0.2,0-0.4,0-0.6
		c0-1.6-0.7-2.5-2.2-2.5C112.6,8.4,111.4,9.1,111.3,11.4L111.3,11.4z"/>
	<path class="st1" d="M120.4,4.1v10.3c0,0.8,0.2,1.2,0.9,1.2c0.3,0,0.6-0.1,0.8-0.2v0.8c-0.3,0.1-0.7,0.2-1.1,0.2
		c-0.8,0.1-1.6-0.5-1.6-1.4c0-0.1,0-0.2,0-0.4V4.1H120.4L120.4,4.1z"/>
	<path class="st1" d="M129.3,10.1v4.1c0,0.9,0.3,1.5,0.9,1.5h0.2v0.7c-0.1,0-0.2,0-0.3,0c-0.7,0-1.4-0.4-1.6-1.1h-0.1
		c-0.6,0.8-1.6,1.3-2.7,1.2c-1.3,0.1-2.4-0.9-2.5-2.1c0,0,0-0.1,0-0.1c0-1.9,1.9-2.8,5.1-2.8v-1c0.2-0.9-0.4-1.8-1.3-2
		c-0.2,0-0.4,0-0.7,0c-0.8,0-1.7,0.4-2.1,1.1l-0.7-0.6c0.7-0.9,1.7-1.4,2.8-1.4C128.3,7.5,129.3,8.3,129.3,10.1z M128.5,12.2
		c-2.2-0.1-4.1,0.5-4.1,1.9c0,0.9,0.7,1.5,1.6,1.5c0.1,0,0.1,0,0.2,0c1,0,1.9-0.5,2.4-1.3V12.2L128.5,12.2z"/>
	<path class="st1" d="M139,16.3H138v-5.7c0.2-1-0.5-2-1.6-2.2c-0.1,0-0.3,0-0.4,0c-1.1,0-2,0.7-2.4,1.7v6.3h-1V7.6h0.7l0.2,0.9h0.1
		c0.6-0.7,1.6-1.1,2.5-1.1c1.4-0.1,2.7,0.9,2.8,2.4c0,0.2,0,0.3,0,0.5L139,16.3L139,16.3z"/>
	<path class="st1" d="M144.8,7.5c0.9-0.1,1.7,0.2,2.3,0.8L146.5,9c-0.5-0.5-1.1-0.7-1.8-0.7c-1.5,0-2.5,1-2.5,3.6s1,3.6,2.5,3.6
		c0.6,0,1.3-0.2,1.8-0.6l0.6,0.7c-0.7,0.6-1.5,0.9-2.4,0.8c-2,0-3.4-1.2-3.4-4.3S142.8,7.5,144.8,7.5z"/>
	<path class="st1" d="M155,15.6c-0.8,0.5-1.7,0.7-2.6,0.7c-2.4,0-3.7-1.2-3.7-4.5s1.8-4.4,3.6-4.4c2,0,3.1,1.3,3.1,3.4
		c0,0.4,0,1-0.1,1.5h-5.6c0.1,2.4,1.1,3.2,2.9,3.2c0.7,0,1.4-0.2,2-0.6L155,15.6z M149.6,11.4h4.7c0-0.2,0-0.4,0-0.6
		c0-1.6-0.7-2.5-2.2-2.5C151,8.4,149.8,9.1,149.6,11.4L149.6,11.4z"/>
	<path class="st1" d="M166.6,4.8c1-0.1,2,0.2,2.8,0.8l-0.6,0.8c-0.7-0.5-1.5-0.7-2.4-0.7c-2.1,0-3.4,1.5-3.4,4.9s1.2,4.9,3.5,4.9
		c0.8,0.1,1.6-0.1,2.2-0.6l0.6,0.7c-0.9,0.6-1.9,1-3,0.9c-3,0-4.3-2.2-4.3-5.7C162.1,7,163.6,4.8,166.6,4.8z"/>
	<path class="st1" d="M171,12c0-2.7,1-4.5,3.5-4.5s3.4,1.8,3.4,4.4s-1,4.5-3.5,4.5S171,14.6,171,12z M174.5,15.6
		c1.8,0,2.5-1.2,2.5-3.6s-0.8-3.6-2.6-3.6s-2.5,1.2-2.5,3.6S172.7,15.5,174.5,15.6L174.5,15.6z"/>
	<path class="st1" d="M181.3,4.1v10.3c0,0.8,0.2,1.2,0.9,1.2c0.3,0,0.6-0.1,0.8-0.2v0.8c-0.3,0.1-0.7,0.2-1.1,0.2
		c-0.8,0.1-1.6-0.5-1.6-1.4c0-0.1,0-0.2,0-0.4V4.1H181.3L181.3,4.1z"/>
	<path class="st1" d="M185.9,4.1v10.3c0,0.8,0.2,1.2,0.9,1.2c0.3,0,0.6-0.1,0.8-0.2v0.8c-0.3,0.1-0.7,0.2-1.1,0.2
		c-0.8,0.1-1.6-0.5-1.6-1.4c0-0.1,0-0.2,0-0.4V4.1H185.9L185.9,4.1z"/>
	<path class="st1" d="M195.2,15.6c-0.8,0.5-1.7,0.7-2.6,0.7c-2.4,0-3.7-1.2-3.7-4.5s1.8-4.4,3.6-4.4c2,0,3.1,1.3,3.1,3.4
		c0,0.4,0,1-0.1,1.5h-5.6c0.1,2.4,1.1,3.2,2.9,3.2c0.7,0,1.4-0.2,2-0.6L195.2,15.6z M189.8,11.4h4.7c0-0.2,0-0.4,0-0.6
		c0-1.6-0.7-2.5-2.2-2.5C191.2,8.4,189.9,9.1,189.8,11.4z"/>
	<path class="st1" d="M201,7.5c0.9-0.1,1.7,0.2,2.3,0.8L202.7,9c-0.5-0.5-1.1-0.7-1.8-0.7c-1.5,0-2.5,1-2.5,3.6s1,3.6,2.5,3.6
		c0.6,0,1.3-0.2,1.8-0.6l0.6,0.7c-0.7,0.6-1.5,0.9-2.4,0.8c-2,0-3.4-1.2-3.4-4.3S199,7.5,201,7.5z"/>
	<path class="st1" d="M205.6,14.1V8.4h-1.3V7.8l1.3-0.2l0.3-2.3h0.7v2.3h2.4v0.8h-2.4V14c-0.1,0.7,0.3,1.4,1,1.5c0.1,0,0.2,0,0.3,0
		c0.5,0,0.9-0.1,1.4-0.3l0.3,0.8c-0.6,0.3-1.2,0.4-1.8,0.4c-1.1,0.1-2-0.6-2.1-1.7C205.6,14.5,205.6,14.3,205.6,14.1z"/>
	<path class="st1" d="M212.3,4.2c0.4,0,0.8,0.3,0.8,0.7c0,0,0,0,0,0c0,0.4-0.3,0.8-0.8,0.8c0,0,0,0,0,0c-0.4,0-0.8-0.3-0.8-0.7
		c0,0,0,0,0,0C211.5,4.6,211.9,4.2,212.3,4.2C212.3,4.2,212.3,4.2,212.3,4.2z M211.9,7.6h0.9v8.7h-0.9V7.6z"/>
	<path class="st1" d="M217.6,13.1c0.3,0.8,0.5,1.5,0.7,2.3h0.1c0.2-0.8,0.4-1.5,0.7-2.3l1.8-5.5h1l-3,8.7h-1.1l-3-8.7h1L217.6,13.1z
		"/>
	<path class="st1" d="M229.3,15.6c-0.8,0.5-1.7,0.7-2.6,0.7c-2.4,0-3.7-1.2-3.7-4.5s1.8-4.4,3.6-4.4c2,0,3,1.3,3,3.4
		c0,0.4,0,1-0.1,1.5H224c0.1,2.4,1.1,3.2,2.9,3.2c0.7,0,1.4-0.2,2-0.6L229.3,15.6z M224,11.4h4.7c0-0.2,0-0.4,0-0.6
		c0-1.6-0.7-2.5-2.2-2.5C225.3,8.4,224.1,9.1,224,11.4L224,11.4z"/>
</g>
<polygon class="st1" points="58.2,89.4 58.2,89.4 58.2,89.4 "/>
</svg>
