<?xml version="1.0" encoding="utf-8"?>
<!-- Generator: Adobe Illustrator 19.2.1, SVG Export Plug-In . SVG Version: 6.00 Build 0)  -->
<svg version="1.1" id="Layer_1" xmlns="http://www.w3.org/2000/svg" xmlns:xlink="http://www.w3.org/1999/xlink" x="0px" y="0px"
	 viewBox="0 0 142 69.2" style="enable-background:new 0 0 142 69.2;" xml:space="preserve">
<style type="text/css">
	.st0{fill:#FFFFFF;}
</style>
<title>mark</title>
<g>
	<path class="st0" d="M45.8,35c-0.7-0.7-0.7-1.8,0-2.5c0,0,0,0,0,0l1.5-1.5c0.7-0.7,0.7-1.8,0-2.5c0,0,0,0,0,0
		c-0.7-0.7-1.8-0.7-2.5,0c0,0,0,0,0,0L43.3,30c-0.7,0.7-1.8,0.7-2.5,0c0,0,0,0,0,0l-0.4-0.4c-0.1-0.2-0.2-0.3-0.3-0.4l-1.5-1.5
		c-0.7-0.7-0.7-1.8,0-2.5c0,0,0,0,0,0l1.5-1.5c0.7-0.7,0.7-1.8,0-2.5c0,0,0,0,0,0c-0.7-0.7-1.8-0.7-2.5,0c0,0,0,0,0,0l-1.5,1.4
		c-0.7,0.7-1.8,0.7-2.5,0c0,0,0,0,0,0l-1.5-1.5c-0.7-0.7-1.8-0.7-2.5,0c0,0,0,0,0,0c-0.7,0.7-0.7,1.8,0,2.5c0,0,0,0,0,0l1.5,1.5
		c0.7,0.7,0.7,1.8,0,2.5c0,0,0,0,0,0l-0.5,0.5c-0.2,0.1-0.3,0.2-0.4,0.3L28.8,30c-0.7,0.7-1.8,0.7-2.5,0c0,0,0,0,0,0l-1.5-1.5
		c-0.7-0.7-1.8-0.7-2.5,0c0,0,0,0,0,0c-0.7,0.7-0.7,1.8,0,2.5c0,0,0,0,0,0l1.5,1.5c0.7,0.7,0.7,1.8,0,2.5c0,0,0,0,0,0l-1.5,1.5
		c-0.7,0.7-0.7,1.8,0,2.5c0,0,0,0,0,0c0.7,0.7,1.8,0.7,2.5,0c0,0,0,0,0,0l1.5-1.5c0.7-0.7,1.8-0.7,2.5,0c0,0,0,0,0,0l1.5,1.5
		c0.1,0.1,0.3,0.2,0.4,0.3l0.5,0.5c0.7,0.7,0.7,1.8,0,2.5c0,0,0,0,0,0l-1.5,1.5c-0.7,0.7-0.7,1.8,0,2.5c0,0,0,0,0,0
		c0.7,0.7,1.8,0.7,2.5,0c0,0,0,0,0,0l1.5-1.5c0.7-0.7,1.8-0.7,2.5,0c0,0,0,0,0,0l1.5,1.5c0.7,0.7,1.8,0.7,2.5,0c0,0,0,0,0,0
		c0.7-0.7,0.7-1.8,0-2.5c0,0,0,0,0,0l-1.5-1.5c-0.7-0.7-0.7-1.8,0-2.5c0,0,0,0,0,0l1.5-1.5c0.1-0.1,0.2-0.3,0.3-0.4l0.4-0.4
		c0.7-0.7,1.8-0.7,2.5,0c0,0,0,0,0,0l1.5,1.5c0.7,0.7,1.8,0.7,2.5,0c0,0,0,0,0,0c0.7-0.7,0.7-1.8,0-2.5c0,0,0,0,0,0L45.8,35z
		 M33.7,37.3l-1.5-1.5c-0.1-0.1-0.3-0.2-0.4-0.3L31.3,35c-0.7-0.7-0.7-1.8,0-2.5c0,0,0,0,0,0l0.5-0.5c0.2-0.1,0.3-0.2,0.4-0.3
		l1.5-1.5c0.7-0.7,1.8-0.7,2.5,0c0,0,0,0,0,0l0.4,0.4c0.1,0.2,0.2,0.3,0.3,0.4l1.5,1.5c0.7,0.7,0.7,1.8,0,2.5c0,0,0,0,0,0l-1.5,1.5
		c-0.1,0.1-0.2,0.3-0.3,0.4l-0.4,0.4C35.5,37.9,34.3,37.9,33.7,37.3C33.7,37.3,33.7,37.3,33.7,37.3L33.7,37.3z"/>
</g>
<g>
	<path class="st0" d="M81,35c-0.7-0.7-0.7-1.8,0-2.5c0,0,0,0,0,0l1.5-1.5c0.7-0.7,0.7-1.8,0-2.5c0,0,0,0,0,0c-0.7-0.7-1.8-0.7-2.5,0
		c0,0,0,0,0,0L78.5,30c-0.7,0.7-1.8,0.7-2.5,0c0,0,0,0,0,0l-0.4-0.4c-0.1-0.2-0.2-0.3-0.3-0.4l-1.5-1.5c-0.7-0.7-0.7-1.8,0-2.5
		c0,0,0,0,0,0l1.5-1.5c0.7-0.7,0.7-1.8,0-2.5c0,0,0,0,0,0c-0.7-0.7-1.8-0.7-2.5,0c0,0,0,0,0,0l-1.5,1.4c-0.7,0.7-1.8,0.7-2.5,0
		c0,0,0,0,0,0l-1.5-1.5c-0.7-0.7-1.8-0.7-2.5,0c0,0,0,0,0,0c-0.7,0.7-0.7,1.8,0,2.5c0,0,0,0,0,0l1.5,1.5c0.7,0.7,0.7,1.8,0,2.5
		c0,0,0,0,0,0l-0.5,0.5c-0.2,0.1-0.3,0.2-0.4,0.3L64,30c-0.7,0.7-1.8,0.7-2.5,0c0,0,0,0,0,0L60,28.5c-0.7-0.7-1.8-0.7-2.5,0
		c0,0,0,0,0,0c-0.7,0.7-0.7,1.8,0,2.5c0,0,0,0,0,0l1.5,1.5c0.7,0.7,0.7,1.8,0,2.5c0,0,0,0,0,0l-1.5,1.5c-0.7,0.7-0.7,1.8,0,2.5
		c0,0,0,0,0,0c0.7,0.7,1.8,0.7,2.5,0c0,0,0,0,0,0l1.5-1.5c0.7-0.7,1.8-0.7,2.5,0c0,0,0,0,0,0l1.5,1.5c0.1,0.1,0.3,0.2,0.4,0.3
		l0.5,0.5c0.7,0.7,0.7,1.8,0,2.5c0,0,0,0,0,0l-1.5,1.5c-0.7,0.7-0.7,1.8,0,2.5c0,0,0,0,0,0c0.7,0.7,1.8,0.7,2.5,0c0,0,0,0,0,0
		l1.5-1.5c0.7-0.7,1.8-0.7,2.5,0c0,0,0,0,0,0l1.5,1.5c0.7,0.7,1.8,0.7,2.5,0c0,0,0,0,0,0c0.7-0.7,0.7-1.8,0-2.5c0,0,0,0,0,0
		l-1.5-1.5c-0.7-0.7-0.7-1.8,0-2.5c0,0,0,0,0,0l1.5-1.5c0.1-0.1,0.2-0.3,0.3-0.4l0.4-0.4c0.7-0.7,1.8-0.7,2.5,0c0,0,0,0,0,0l1.5,1.5
		c0.7,0.7,1.8,0.7,2.5,0c0,0,0,0,0,0c0.7-0.7,0.7-1.8,0-2.5c0,0,0,0,0,0L81,35z M68.9,37.3l-1.5-1.5c-0.1-0.1-0.3-0.2-0.4-0.3
		L66.5,35c-0.7-0.7-0.7-1.8,0-2.5c0,0,0,0,0,0L67,32c0.2-0.1,0.3-0.2,0.4-0.3l1.5-1.5c0.7-0.7,1.8-0.7,2.5,0c0,0,0,0,0,0l0.4,0.4
		c0.1,0.2,0.2,0.3,0.3,0.4l1.5,1.5c0.7,0.7,0.7,1.8,0,2.5c0,0,0,0,0,0l-1.5,1.5c-0.1,0.1-0.2,0.3-0.3,0.4l-0.4,0.4
		C70.7,37.9,69.6,37.9,68.9,37.3C68.9,37.3,68.9,37.3,68.9,37.3L68.9,37.3z"/>
</g>
<g>
	<path class="st0" d="M116,35c-0.7-0.7-0.7-1.8,0-2.5c0,0,0,0,0,0l1.5-1.5c0.7-0.7,0.7-1.8,0-2.5c0,0,0,0,0,0
		c-0.7-0.7-1.8-0.7-2.5,0c0,0,0,0,0,0l-1.5,1.5c-0.7,0.7-1.8,0.7-2.5,0c0,0,0,0,0,0l-0.4-0.4c-0.1-0.2-0.2-0.3-0.3-0.4l-1.5-1.5
		c-0.7-0.7-0.7-1.8,0-2.5c0,0,0,0,0,0l1.5-1.5c0.7-0.7,0.7-1.8,0-2.5c0,0,0,0,0,0c-0.7-0.7-1.8-0.7-2.5,0c0,0,0,0,0,0l-1.5,1.4
		c-0.7,0.7-1.8,0.7-2.5,0c0,0,0,0,0,0l-1.5-1.5c-0.7-0.7-1.8-0.7-2.5,0c0,0,0,0,0,0c-0.7,0.7-0.7,1.8,0,2.5c0,0,0,0,0,0l1.5,1.5
		c0.7,0.7,0.7,1.8,0,2.5c0,0,0,0,0,0l-0.5,0.5c-0.2,0.1-0.3,0.2-0.4,0.3L99,30c-0.7,0.7-1.8,0.7-2.5,0c0,0,0,0,0,0l-1.5-1.5
		c-0.7-0.7-1.8-0.7-2.5,0c0,0,0,0,0,0c-0.7,0.7-0.7,1.8,0,2.5c0,0,0,0,0,0l1.5,1.5c0.7,0.7,0.7,1.8,0,2.5c0,0,0,0,0,0l-1.5,1.5
		c-0.7,0.7-0.7,1.8,0,2.5c0,0,0,0,0,0c0.7,0.7,1.8,0.7,2.5,0c0,0,0,0,0,0l1.5-1.5c0.7-0.7,1.8-0.7,2.5,0c0,0,0,0,0,0l1.5,1.5
		c0.1,0.1,0.3,0.2,0.4,0.3l0.5,0.5c0.7,0.7,0.7,1.8,0,2.5c0,0,0,0,0,0l-1.5,1.5c-0.7,0.7-0.7,1.8,0,2.5c0,0,0,0,0,0
		c0.7,0.7,1.8,0.7,2.5,0c0,0,0,0,0,0l1.5-1.5c0.7-0.7,1.8-0.7,2.5,0c0,0,0,0,0,0l1.5,1.5c0.7,0.7,1.8,0.7,2.5,0c0,0,0,0,0,0
		c0.7-0.7,0.7-1.8,0-2.5c0,0,0,0,0,0l-1.5-1.5c-0.7-0.7-0.7-1.8,0-2.5c0,0,0,0,0,0l1.5-1.5c0.1-0.1,0.2-0.3,0.3-0.4l0.4-0.4
		c0.7-0.7,1.8-0.7,2.5,0c0,0,0,0,0,0l1.5,1.5c0.7,0.7,1.8,0.7,2.5,0c0,0,0,0,0,0c0.7-0.7,0.7-1.8,0-2.5c0,0,0,0,0,0L116,35z
		 M103.9,37.3l-1.5-1.5c-0.1-0.1-0.3-0.2-0.4-0.3l-0.5-0.5c-0.7-0.7-0.7-1.8,0-2.5c0,0,0,0,0,0L102,32c0.2-0.1,0.3-0.2,0.4-0.3
		l1.5-1.5c0.7-0.7,1.8-0.7,2.5,0c0,0,0,0,0,0l0.4,0.4c0.1,0.2,0.2,0.3,0.3,0.4l1.5,1.5c0.7,0.7,0.7,1.8,0,2.5c0,0,0,0,0,0l-1.5,1.5
		c-0.1,0.1-0.2,0.3-0.3,0.4l-0.4,0.4C105.7,37.9,104.6,37.9,103.9,37.3C103.9,37.3,103.9,37.3,103.9,37.3L103.9,37.3z"/>
</g>
</svg>
