<svg id="Layer_1" data-name="Layer 1" xmlns="http://www.w3.org/2000/svg" viewBox="0 0 51.07 51.07"><defs><style>.cls-1{fill:#f26a68;stroke:#f26a68;stroke-miterlimit:10;}.cls-2{fill:#71c05d;}.cls-3{fill:#f1bc46;}.cls-4{fill:#fff;}.cls-5{fill:#5d5e5e;}</style></defs><title>mark2</title><rect class="cls-1" x="0.5" y="0.5" width="50.07" height="50.07" rx="2.19" ry="2.19"/><path class="cls-2" d="M2748.42-414" transform="translate(-2731.1 427.02)"/><path class="cls-2" d="M2741.62-410.9s3.84-2.2,6.6-.23S2744.5-408.13,2741.62-410.9Z" transform="translate(-2731.1 427.02)"/><path class="cls-2" d="M2746.06-419.76s6.38,3.67,4.26,8.36S2742.52-414.45,2746.06-419.76Z" transform="translate(-2731.1 427.02)"/><path class="cls-3" d="M2744.4-405.52a13.83,13.83,0,0,1,2.78-4.66,12.71,12.71,0,0,1,4.45-3.12,14.93,14.93,0,0,1,5.94-1.13,14.9,14.9,0,0,1,6,1.13,12.75,12.75,0,0,1,4.43,3.12,13.86,13.86,0,0,1,2.78,4.66,17,17,0,0,1,1,5.8,16.39,16.39,0,0,1-1,5.68,13.5,13.5,0,0,1-2.78,4.59,12.77,12.77,0,0,1-4.43,3.06,15.12,15.12,0,0,1-6,1.11,15.15,15.15,0,0,1-5.94-1.11,12.72,12.72,0,0,1-4.45-3.06,13.48,13.48,0,0,1-2.78-4.59,16.36,16.36,0,0,1-1-5.68A16.92,16.92,0,0,1,2744.4-405.52Z" transform="translate(-2731.1 427.02)"/><path class="cls-4" d="M2753.93-412.24c2.07-1.08,4.79-.94,7.4-0.15a12.54,12.54,0,0,1,4.58,2.39,10.63,10.63,0,0,1,2.8,3.64c1.88,4.06,1,8.78-1,12.63a4.55,4.55,0,0,1-1.93,2.16m0,0c-2.78,1.3-10.14-4.2-12.1-6.12a9.89,9.89,0,0,1-2.65-11,6,6,0,0,1,2.9-3.52" transform="translate(-2731.1 427.02)"/><path class="cls-5" d="M2757.57-406.5a4,4,0,0,1,2.95-.06,5,5,0,0,1,1.83,1,4.24,4.24,0,0,1,1.12,1.45,5.76,5.76,0,0,1-.4,5,1.82,1.82,0,0,1-.77.86m0,0c-1.11.52-4-1.67-4.82-2.44a4,4,0,0,1-1.06-4.41,2.41,2.41,0,0,1,1.16-1.4" transform="translate(-2731.1 427.02)"/></svg>