<?xml version="1.0" encoding="utf-8"?>
<!-- Generator: Adobe Illustrator 19.2.1, SVG Export Plug-In . SVG Version: 6.00 Build 0)  -->
<svg version="1.1" id="Layer_1" xmlns="http://www.w3.org/2000/svg" xmlns:xlink="http://www.w3.org/1999/xlink" x="0px" y="0px"
	 viewBox="0 0 84.8 84.8" style="enable-background:new 0 0 84.8 84.8;" xml:space="preserve">
<style type="text/css">
	.st0{fill:#E14E4E;}
</style>
<title>smiley</title>
<path class="st0" d="M59.9,34.9H23.1c-1.5,0-2.8-1.3-2.8-2.8l0,0c0-1.5,1.3-2.8,2.8-2.8h36.7c1.5,0,2.8,1.3,2.8,2.8l0,0
	C62.6,33.7,61.4,34.9,59.9,34.9z"/>
<path class="st0" d="M59.9,45.3H23.1c-1.5,0-2.8-1.3-2.8-2.8l0,0c0-1.5,1.3-2.8,2.8-2.8h36.7c1.5,0,2.8,1.3,2.8,2.8l0,0
	C62.6,44,61.4,45.3,59.9,45.3z"/>
<path class="st0" d="M59.9,55.7H23.1c-1.5,0-2.8-1.3-2.8-2.8l0,0c0-1.5,1.3-2.8,2.8-2.8h36.7c1.5,0,2.8,1.3,2.8,2.8l0,0
	C62.6,54.4,61.4,55.7,59.9,55.7z"/>
</svg>
