<?xml version="1.0" encoding="utf-8"?>
<!-- Generator: Adobe Illustrator 19.2.1, SVG Export Plug-In . SVG Version: 6.00 Build 0)  -->
<svg version="1.1" id="Layer_1" xmlns="http://www.w3.org/2000/svg" xmlns:xlink="http://www.w3.org/1999/xlink" x="0px" y="0px"
	 viewBox="0 0 2472.1 109.7" style="enable-background:new 0 0 2472.1 109.7;" xml:space="preserve">
<style type="text/css">
	.st0{fill:#0A9596;}
	.st1{fill:#FFFFFF;}
	.st2{fill:#FD6161;}
</style>
<title>wave</title>
<path class="st0" d="M-2206.1-455.1C-1114.2-111.5,47.8,73.7,1253.2,73.7c1192.1,0,2341.8-181.2,3423.2-517.5L-2206.1-455.1z"/>
<circle class="st1" cx="1252" cy="72.5" r="34.4"/>
<g>
	<path class="st2" d="M1248.8,86.1l-11.5-11.5c-1.8-1.8-1.8-4.6,0-6.4l0,0c1.8-1.8,4.6-1.8,6.4,0l5.1,5.1c1.8,1.8,4.6,1.8,6.4,0
		l5.1-5.1c1.8-1.8,4.6-1.8,6.4,0l0,0c1.8,1.8,1.8,4.6,0,6.4l-11.5,11.5C1253.4,87.8,1250.6,87.8,1248.8,86.1z"/>
</g>
</svg>
